<?xml version="1.0" encoding="UTF-8" standalone="no"?>
<!-- Generator: Adobe Illustrator 23.0.1, SVG Export Plug-In . SVG Version: 6.00 Build 0)  -->

<svg
   version="1.1"
   x="0px"
   y="0px"
   viewBox="0 0 64 64"
   xml:space="preserve"
   id="svg150"
   sodipodi:docname="flostel.svg"
   inkscape:version="1.2.2 (b0a8486541, 2022-12-01)"
   inkscape:export-filename="flostel.16.svg"
   inkscape:export-xdpi="46.875"
   inkscape:export-ydpi="46.875"
   width="64"
   height="64"
   xmlns:inkscape="http://www.inkscape.org/namespaces/inkscape"
   xmlns:sodipodi="http://sodipodi.sourceforge.net/DTD/sodipodi-0.dtd"
   xmlns="http://www.w3.org/2000/svg"
   xmlns:svg="http://www.w3.org/2000/svg"><defs
   id="defs154"><linearGradient
   id="linearGradient3132"
   inkscape:swatch="solid"><stop
     style="stop-color:#2e0000;stop-opacity:1;"
     offset="0"
     id="stop3130" /></linearGradient>
	
	
	

		
			
		
			
		
		
		
		
		
		
		
		
		
	
			
			
			
			
			
			
		
			
		</defs><sodipodi:namedview
   id="namedview152"
   pagecolor="#ffffff"
   bordercolor="#666666"
   borderopacity="1.0"
   inkscape:pageshadow="2"
   inkscape:pageopacity="0.0"
   inkscape:pagecheckerboard="0"
   showgrid="false"
   inkscape:zoom="5"
   inkscape:cx="37.8"
   inkscape:cy="19.8"
   inkscape:window-width="1920"
   inkscape:window-height="1012"
   inkscape:window-x="0"
   inkscape:window-y="0"
   inkscape:window-maximized="1"
   inkscape:current-layer="svg150"
   inkscape:showpageshadow="2"
   inkscape:deskcolor="#d1d1d1" />
<style
   type="text/css"
   id="style2">
	.st0{fill:#1D1F25;}
	.st1{fill:#E0ECDE;}
	.st2{opacity:0;fill:#FFFFFF;}
	.st3{fill:#2E2D35;}
	.st4{fill:none;stroke:#2E2D35;stroke-width:3.219;stroke-miterlimit:10;}
	.st5{fill:none;stroke:#2E2D35;stroke-width:6.4381;stroke-miterlimit:10;}
</style>


<text
   xml:space="preserve"
   style="font-style:normal;font-variant:normal;font-weight:bold;font-stretch:normal;font-size:41.0627px;line-height:1.25;font-family:'DejaVu Sans';-inkscape-font-specification:'DejaVu Sans, Bold';font-variant-ligatures:normal;font-variant-caps:normal;font-variant-numeric:normal;font-variant-east-asian:normal;fill:#008080;fill-opacity:1;stroke:none;stroke-width:0.307971"
   x="6.5384765"
   y="42.085022"
   id="text3550"
   inkscape:export-filename="/home/fan/Pictures/flostel.png"
   inkscape:export-xdpi="96.000008"
   inkscape:export-ydpi="96.000008"><tspan
     sodipodi:role="line"
     id="tspan3548"
     x="6.5384765"
     y="42.085022"
     style="fill:#008080;stroke-width:0.307971">F</tspan></text><text
   xml:space="preserve"
   style="font-style:normal;font-variant:normal;font-weight:bold;font-stretch:normal;font-size:28.7369px;line-height:1.25;font-family:aakar;-inkscape-font-specification:'aakar, Bold';font-variant-ligatures:normal;font-variant-caps:normal;font-variant-numeric:normal;font-variant-east-asian:normal;fill:#ff0000;fill-opacity:1;stroke:none;stroke-width:0.35925;stroke-miterlimit:4;stroke-dasharray:none"
   x="16.194206"
   y="60.70512"
   id="text17936"
   inkscape:export-filename="/home/fan/Pictures/flostel.png"
   inkscape:export-xdpi="96.000008"
   inkscape:export-ydpi="96.000008"
   transform="scale(1.036059,0.965196)"><tspan
     sodipodi:role="line"
     id="tspan17934"
     x="16.194206"
     y="60.70512"
     style="font-style:normal;font-variant:normal;font-weight:bold;font-stretch:normal;font-size:28.7369px;font-family:aakar;-inkscape-font-specification:'aakar, Bold';font-variant-ligatures:normal;font-variant-caps:normal;font-variant-numeric:normal;font-variant-east-asian:normal;fill:#ff0000;stroke-width:0.35925;stroke-miterlimit:4;stroke-dasharray:none">S</tspan></text><path
   sodipodi:type="star"
   style="fill:#ff0000;stroke-width:1.88976"
   id="path1153"
   inkscape:flatsided="false"
   sodipodi:sides="5"
   sodipodi:cx="200.72603"
   sodipodi:cy="682.09967"
   sodipodi:r1="110.20307"
   sodipodi:r2="55.101532"
   sodipodi:arg1="0.52359878"
   sodipodi:arg2="1.1519173"
   inkscape:rounded="0"
   inkscape:randomized="0"
   inkscape:transform-center-x="-0.055616147"
   inkscape:transform-center-y="-6.3491416"
   transform="matrix(0.08778495,0.03936525,-0.03936523,0.08778495,56.178613,-47.540711)"
   d="m 296.16469,737.20121 -73.02685,-4.76379 -45.32432,57.45712 -18.03591,-70.92475 -68.650949,-25.35076 61.880039,-39.07013 2.8957,-73.12475 56.27988,46.77809 70.44059,-19.84282 -27.09716,67.98057 z"
   inkscape:export-filename="/home/fan/Pictures/flostel.png"
   inkscape:export-xdpi="96.000008"
   inkscape:export-ydpi="96.000008" /><g
   id="g132"
   transform="matrix(0.18788228,-0.06694587,-0.05080738,-0.21833399,54.923429,26.978198)"
   inkscape:export-filename="/home/fan/Pictures/flostel.png"
   inkscape:export-xdpi="96.000008"
   inkscape:export-ydpi="96.000008"><path
     d="M 0,0 C -0.043,-0.16 0.161,-0.145 0.225,-0.198 0.253,-0.042 0.06,-0.055 0,0"
     style="fill:#00afa2;fill-opacity:1;fill-rule:evenodd;stroke:none"
     id="path134" /></g><g
   id="g388"
   transform="matrix(0.24670144,-0.08217869,-0.06671336,-0.26801357,42.422721,49.364413)"
   style="fill:#008080"
   inkscape:export-filename="/home/fan/Pictures/flostel.png"
   inkscape:export-xdpi="96.000008"
   inkscape:export-ydpi="96.000008"><path
     d="m 0,0 c 0,0 2.775,-1.867 9.811,-5.791 7.035,-3.925 18.161,-5.361 34.673,1.81 8.079,2.224 10.959,3.108 18.584,-0.14 C 59.2,2.916 25.143,31.195 0,0"
     style="fill:#008080;fill-opacity:1;fill-rule:nonzero;stroke:none"
     id="path390" /></g><g
   id="g392"
   transform="matrix(0.46309114,-0.16500779,-0.12522974,-0.53814836,46.20675,37.570321)"
   style="fill:#008080"
   inkscape:export-filename="/home/fan/Pictures/flostel.png"
   inkscape:export-xdpi="96.000008"
   inkscape:export-ydpi="96.000008"><path
     d="m 0,0 c 0,0 1.359,-0.916 4.813,-2.84 3.451,-1.928 8.912,-2.632 17.01,0.884 3.964,1.093 5.376,1.527 9.119,-0.065 C 29.042,1.43 12.336,15.302 0,0"
     style="fill:#008080;fill-opacity:1;fill-rule:nonzero;stroke:none"
     id="path394" /></g><g
   id="g404"
   transform="matrix(0.2682929,-0.01713098,0.01506848,-0.30177571,44.633899,42.488498)"
   style="fill:#008080"
   inkscape:export-filename="/home/fan/Pictures/flostel.png"
   inkscape:export-xdpi="96.000008"
   inkscape:export-ydpi="96.000008"><path
     d="M 0,0 C 0,0 -2.959,10.178 -11.359,21.065 -19.757,31.954 -22.148,36.788 -34.13,41.352 -29.488,42.261 -1.648,47.591 3,23.235 3.916,8.913 2.264,4.225 0,0"
     style="fill:#008080;fill-opacity:1;fill-rule:nonzero;stroke:none"
     id="path406" /></g><g
   id="g408"
   transform="matrix(0.3364924,-0.06968735,-0.03580084,-0.38294532,38.595586,55.371176)"
   style="fill:#008080"
   inkscape:export-filename="/home/fan/Pictures/flostel.png"
   inkscape:export-xdpi="96.000008"
   inkscape:export-ydpi="96.000008"><path
     d="M 0,0 C 0,0 0.782,10.569 -3.282,23.707 -7.347,36.844 -7.9,42.208 -17.531,50.67 -12.865,49.9 15.083,45.168 10.929,20.721 6.784,6.983 3.597,3.167 0,0"
     style="fill:#008080;fill-opacity:1;fill-rule:nonzero;stroke:none"
     id="path410" /></g><g
   id="g412"
   transform="matrix(0.19896824,-0.06986479,-0.05380526,-0.2278536,34.250145,59.989389)"
   style="stroke:#2e2d35;stroke-width:2.25;stroke-miterlimit:10;stroke-dasharray:none;stroke-opacity:1"
   inkscape:export-filename="/home/fan/Pictures/flostel.png"
   inkscape:export-xdpi="96.000008"
   inkscape:export-ydpi="96.000008"><path
     d="M 0,0 C 0,0 67.312,14.132 95.603,116.446"
     style="fill:none;stroke:#2e2d35;stroke-width:2.25;stroke-linecap:butt;stroke-linejoin:miter;stroke-miterlimit:10;stroke-dasharray:none;stroke-opacity:1"
     id="path414" /></g></svg>
